<svg width="29" height="28" viewBox="0 0 29 28" fill="none" xmlns="http://www.w3.org/2000/svg">
<g id="Invoice">
<path id="Vector" d="M7.33325 6.125H4.70825C4.24412 6.125 3.799 6.30937 3.47082 6.63756C3.14263 6.96575 2.95825 7.41087 2.95825 7.875C2.95825 8.33913 3.14263 8.78425 3.47082 9.11244C3.799 9.44063 4.24412 9.625 4.70825 9.625H6.45825C6.92238 9.625 7.3675 9.80937 7.69569 10.1376C8.02388 10.4658 8.20825 10.9109 8.20825 11.375C8.20825 11.8391 8.02388 12.2842 7.69569 12.6124C7.3675 12.9406 6.92238 13.125 6.45825 13.125H3.39575" stroke="#605D7C" stroke-width="1.5" stroke-linecap="round" stroke-linejoin="round"/>
<path id="Vector_2" d="M5.58325 5.25V6.125" stroke="#605D7C" stroke-width="1.5" stroke-linecap="round" stroke-linejoin="round"/>
<path id="Vector_3" d="M5.58325 13.125V14" stroke="#605D7C" stroke-width="1.5" stroke-linecap="round" stroke-linejoin="round"/>
<path id="Vector_4" d="M10.8333 6.125H24.8333V21C24.8333 21.2321 24.7411 21.4546 24.577 21.6187C24.4129 21.7828 24.1903 21.875 23.9583 21.875H4.70825C4.47619 21.875 4.25363 21.7828 4.08953 21.6187C3.92544 21.4546 3.83325 21.2321 3.83325 21V16.625" stroke="#605D7C" stroke-width="1.5" stroke-linecap="round" stroke-linejoin="round"/>
<path id="Vector_5" d="M11.7083 11.375H24.8333" stroke="#605D7C" stroke-width="1.5" stroke-linecap="round" stroke-linejoin="round"/>
<path id="Vector_6" d="M9.08325 16.625H24.8333" stroke="#605D7C" stroke-width="1.5" stroke-linecap="round" stroke-linejoin="round"/>
<path id="Vector_7" d="M18.7083 11.375V21.875" stroke="#605D7C" stroke-width="1.5" stroke-linecap="round" stroke-linejoin="round"/>
</g>
</svg>
