<svg width="29" height="28" viewBox="0 0 29 28" fill="none" xmlns="http://www.w3.org/2000/svg">
<g id="Invoice">
<path id="Vector" d="M7.33337 6.125H4.70837C4.24425 6.125 3.79913 6.30937 3.47094 6.63756C3.14275 6.96575 2.95837 7.41087 2.95837 7.875C2.95837 8.33913 3.14275 8.78425 3.47094 9.11244C3.79913 9.44063 4.24425 9.625 4.70837 9.625H6.45837C6.9225 9.625 7.36762 9.80937 7.69581 10.1376C8.024 10.4658 8.20837 10.9109 8.20837 11.375C8.20837 11.8391 8.024 12.2842 7.69581 12.6124C7.36762 12.9406 6.9225 13.125 6.45837 13.125H3.39587" stroke="white" stroke-width="1.5" stroke-linecap="round" stroke-linejoin="round"/>
<path id="Vector_2" d="M5.58337 5.25V6.125" stroke="white" stroke-width="1.5" stroke-linecap="round" stroke-linejoin="round"/>
<path id="Vector_3" d="M5.58337 13.125V14" stroke="white" stroke-width="1.5" stroke-linecap="round" stroke-linejoin="round"/>
<path id="Vector_4" d="M10.8334 6.125H24.8334V21C24.8334 21.2321 24.7412 21.4546 24.5771 21.6187C24.413 21.7828 24.1904 21.875 23.9584 21.875H4.70837C4.47631 21.875 4.25375 21.7828 4.08966 21.6187C3.92556 21.4546 3.83337 21.2321 3.83337 21V16.625" stroke="white" stroke-width="1.5" stroke-linecap="round" stroke-linejoin="round"/>
<path id="Vector_5" d="M11.7084 11.375H24.8334" stroke="white" stroke-width="1.5" stroke-linecap="round" stroke-linejoin="round"/>
<path id="Vector_6" d="M9.08337 16.625H24.8334" stroke="white" stroke-width="1.5" stroke-linecap="round" stroke-linejoin="round"/>
<path id="Vector_7" d="M18.7084 11.375V21.875" stroke="white" stroke-width="1.5" stroke-linecap="round" stroke-linejoin="round"/>
</g>
</svg>
