<svg width="29" height="28" viewBox="0 0 29 28" fill="none" xmlns="http://www.w3.org/2000/svg">
<g id="Wallet">
<path id="Vector" d="M5.0415 6.125V20.125C5.0415 20.5891 5.22588 21.0342 5.55407 21.3624C5.88226 21.6906 6.32738 21.875 6.7915 21.875H24.2915C24.5236 21.875 24.7461 21.7828 24.9102 21.6187C25.0743 21.4546 25.1665 21.2321 25.1665 21V8.75C25.1665 8.51794 25.0743 8.29538 24.9102 8.13128C24.7461 7.96719 24.5236 7.875 24.2915 7.875H6.7915C6.32738 7.875 5.88226 7.69063 5.55407 7.36244C5.22588 7.03425 5.0415 6.58913 5.0415 6.125ZM5.0415 6.125C5.0415 5.66087 5.22588 5.21575 5.55407 4.88756C5.88226 4.55937 6.32738 4.375 6.7915 4.375H21.6665" stroke="white" stroke-width="1.5" stroke-linecap="round" stroke-linejoin="round"/>
<path id="Vector_2" d="M20.354 15.75C21.0789 15.75 21.6665 15.1624 21.6665 14.4375C21.6665 13.7126 21.0789 13.125 20.354 13.125C19.6291 13.125 19.0415 13.7126 19.0415 14.4375C19.0415 15.1624 19.6291 15.75 20.354 15.75Z" fill="white"/>
</g>
</svg>
