<svg width="29" height="28" viewBox="0 0 29 28" fill="none" xmlns="http://www.w3.org/2000/svg">
<g id="Wallet">
<path id="Vector" d="M5.04175 6.125V20.125C5.04175 20.5891 5.22612 21.0342 5.55431 21.3624C5.8825 21.6906 6.32762 21.875 6.79175 21.875H24.2917C24.5238 21.875 24.7464 21.7828 24.9105 21.6187C25.0746 21.4546 25.1667 21.2321 25.1667 21V8.75C25.1667 8.51794 25.0746 8.29538 24.9105 8.13128C24.7464 7.96719 24.5238 7.875 24.2917 7.875H6.79175C6.32762 7.875 5.8825 7.69063 5.55431 7.36244C5.22612 7.03425 5.04175 6.58913 5.04175 6.125ZM5.04175 6.125C5.04175 5.66087 5.22612 5.21575 5.55431 4.88756C5.8825 4.55937 6.32762 4.375 6.79175 4.375H21.6667" stroke="#605D7C" stroke-width="1.5" stroke-linecap="round" stroke-linejoin="round"/>
<path id="Vector_2" d="M20.3542 15.75C21.0791 15.75 21.6667 15.1624 21.6667 14.4375C21.6667 13.7126 21.0791 13.125 20.3542 13.125C19.6294 13.125 19.0417 13.7126 19.0417 14.4375C19.0417 15.1624 19.6294 15.75 20.3542 15.75Z" fill="#605D7C"/>
</g>
</svg>
