<svg width="24" height="25" viewBox="0 0 24 25" fill="none" xmlns="http://www.w3.org/2000/svg">
<g id="Account circle" clip-path="url(#clip0_1585_25679)">
<g id="Group">
<g id="Group_2">
<path id="Vector" d="M12 0.5C5.376 0.5 0 5.876 0 12.5C0 19.124 5.376 24.5 12 24.5C18.624 24.5 24 19.124 24 12.5C24 5.876 18.624 0.5 12 0.5ZM6.42 20.3C7.992 19.172 9.912 18.5 12 18.5C14.088 18.5 16.008 19.172 17.58 20.3C16.008 21.428 14.088 22.1 12 22.1C9.912 22.1 7.992 21.428 6.42 20.3ZM19.368 18.644C17.34 17.06 14.784 16.1 12 16.1C9.216 16.1 6.66 17.06 4.632 18.644C3.24 16.976 2.4 14.84 2.4 12.5C2.4 7.196 6.696 2.9 12 2.9C17.304 2.9 21.6 7.196 21.6 12.5C21.6 14.84 20.76 16.976 19.368 18.644Z" fill="#F0FBC7"/>
<path id="Vector_2" d="M11.9998 5.30013C9.6838 5.30013 7.7998 7.18413 7.7998 9.50013C7.7998 11.8161 9.6838 13.7001 11.9998 13.7001C14.3158 13.7001 16.1998 11.8161 16.1998 9.50013C16.1998 7.18413 14.3158 5.30013 11.9998 5.30013ZM11.9998 11.3001C11.0038 11.3001 10.1998 10.4961 10.1998 9.50013C10.1998 8.50413 11.0038 7.70013 11.9998 7.70013C12.9958 7.70013 13.7998 8.50413 13.7998 9.50013C13.7998 10.4961 12.9958 11.3001 11.9998 11.3001Z" fill="#F0FBC7"/>
</g>
</g>
</g>
<defs>
<clipPath id="clip0_1585_25679">
<rect width="24" height="24" fill="white" transform="translate(0 0.5)"/>
</clipPath>
</defs>
</svg>
