<svg width="28" height="28" viewBox="0 0 28 28" fill="none" xmlns="http://www.w3.org/2000/svg">
<g id="Barcode">
<path id="Vector" d="M25.375 5.25V9.625C25.375 9.85706 25.2828 10.0796 25.1187 10.2437C24.9546 10.4078 24.7321 10.5 24.5 10.5C24.2679 10.5 24.0454 10.4078 23.8813 10.2437C23.7172 10.0796 23.625 9.85706 23.625 9.625V6.125H20.125C19.8929 6.125 19.6704 6.03281 19.5063 5.86872C19.3422 5.70462 19.25 5.48206 19.25 5.25C19.25 5.01794 19.3422 4.79538 19.5063 4.63128C19.6704 4.46719 19.8929 4.375 20.125 4.375H24.5C24.7321 4.375 24.9546 4.46719 25.1187 4.63128C25.2828 4.79538 25.375 5.01794 25.375 5.25ZM7.875 21.875H4.375V18.375C4.375 18.1429 4.28281 17.9204 4.11872 17.7563C3.95462 17.5922 3.73206 17.5 3.5 17.5C3.26794 17.5 3.04538 17.5922 2.88128 17.7563C2.71719 17.9204 2.625 18.1429 2.625 18.375V22.75C2.625 22.9821 2.71719 23.2046 2.88128 23.3687C3.04538 23.5328 3.26794 23.625 3.5 23.625H7.875C8.10706 23.625 8.32962 23.5328 8.49372 23.3687C8.65781 23.2046 8.75 22.9821 8.75 22.75C8.75 22.5179 8.65781 22.2954 8.49372 22.1313C8.32962 21.9672 8.10706 21.875 7.875 21.875ZM24.5 17.5C24.2679 17.5 24.0454 17.5922 23.8813 17.7563C23.7172 17.9204 23.625 18.1429 23.625 18.375V21.875H20.125C19.8929 21.875 19.6704 21.9672 19.5063 22.1313C19.3422 22.2954 19.25 22.5179 19.25 22.75C19.25 22.9821 19.3422 23.2046 19.5063 23.3687C19.6704 23.5328 19.8929 23.625 20.125 23.625H24.5C24.7321 23.625 24.9546 23.5328 25.1187 23.3687C25.2828 23.2046 25.375 22.9821 25.375 22.75V18.375C25.375 18.1429 25.2828 17.9204 25.1187 17.7563C24.9546 17.5922 24.7321 17.5 24.5 17.5ZM3.5 10.5C3.73206 10.5 3.95462 10.4078 4.11872 10.2437C4.28281 10.0796 4.375 9.85706 4.375 9.625V6.125H7.875C8.10706 6.125 8.32962 6.03281 8.49372 5.86872C8.65781 5.70462 8.75 5.48206 8.75 5.25C8.75 5.01794 8.65781 4.79538 8.49372 4.63128C8.32962 4.46719 8.10706 4.375 7.875 4.375H3.5C3.26794 4.375 3.04538 4.46719 2.88128 4.63128C2.71719 4.79538 2.625 5.01794 2.625 5.25V9.625C2.625 9.85706 2.71719 10.0796 2.88128 10.2437C3.04538 10.4078 3.26794 10.5 3.5 10.5ZM8.75 8.75C8.51794 8.75 8.29538 8.84219 8.13128 9.00628C7.96719 9.17038 7.875 9.39294 7.875 9.625V18.375C7.875 18.6071 7.96719 18.8296 8.13128 18.9937C8.29538 19.1578 8.51794 19.25 8.75 19.25C8.98206 19.25 9.20462 19.1578 9.36872 18.9937C9.53281 18.8296 9.625 18.6071 9.625 18.375V9.625C9.625 9.39294 9.53281 9.17038 9.36872 9.00628C9.20462 8.84219 8.98206 8.75 8.75 8.75ZM20.125 18.375V9.625C20.125 9.39294 20.0328 9.17038 19.8687 9.00628C19.7046 8.84219 19.4821 8.75 19.25 8.75C19.0179 8.75 18.7954 8.84219 18.6313 9.00628C18.4672 9.17038 18.375 9.39294 18.375 9.625V18.375C18.375 18.6071 18.4672 18.8296 18.6313 18.9937C18.7954 19.1578 19.0179 19.25 19.25 19.25C19.4821 19.25 19.7046 19.1578 19.8687 18.9937C20.0328 18.8296 20.125 18.6071 20.125 18.375ZM15.75 8.75C15.5179 8.75 15.2954 8.84219 15.1313 9.00628C14.9672 9.17038 14.875 9.39294 14.875 9.625V18.375C14.875 18.6071 14.9672 18.8296 15.1313 18.9937C15.2954 19.1578 15.5179 19.25 15.75 19.25C15.9821 19.25 16.2046 19.1578 16.3687 18.9937C16.5328 18.8296 16.625 18.6071 16.625 18.375V9.625C16.625 9.39294 16.5328 9.17038 16.3687 9.00628C16.2046 8.84219 15.9821 8.75 15.75 8.75ZM12.25 8.75C12.0179 8.75 11.7954 8.84219 11.6313 9.00628C11.4672 9.17038 11.375 9.39294 11.375 9.625V18.375C11.375 18.6071 11.4672 18.8296 11.6313 18.9937C11.7954 19.1578 12.0179 19.25 12.25 19.25C12.4821 19.25 12.7046 19.1578 12.8687 18.9937C13.0328 18.8296 13.125 18.6071 13.125 18.375V9.625C13.125 9.39294 13.0328 9.17038 12.8687 9.00628C12.7046 8.84219 12.4821 8.75 12.25 8.75Z" fill="#38355B"/>
</g>
</svg>
