<svg width="21" height="20" viewBox="0 0 21 20" fill="none" xmlns="http://www.w3.org/2000/svg">
<g id="HandArrowUp">
<path id="Vector" d="M18.4945 11.0203C18.262 10.8414 17.9913 10.7185 17.7035 10.6612C17.4157 10.6038 17.1185 10.6137 16.8352 10.6898L13.5664 11.4414C13.6425 11.1202 13.6448 10.7859 13.5733 10.4636C13.5017 10.1413 13.3582 9.83934 13.1534 9.58042C12.9486 9.32149 12.6878 9.11228 12.3907 8.96847C12.0935 8.82466 11.7676 8.74997 11.4375 8.75H7.52656C7.19812 8.74918 6.87278 8.81345 6.56932 8.9391C6.26587 9.06474 5.99032 9.24928 5.75859 9.48204L3.99141 11.25H1.75C1.41848 11.25 1.10054 11.3817 0.866117 11.6161C0.631696 11.8505 0.5 12.1685 0.5 12.5L0.5 15.625C0.5 15.9565 0.631696 16.2745 0.866117 16.5089C1.10054 16.7433 1.41848 16.875 1.75 16.875H9.875C9.9261 16.875 9.97701 16.8687 10.0266 16.8563L15.0266 15.6063C15.0587 15.5986 15.09 15.5881 15.1203 15.575L18.1562 14.2828L18.1906 14.2672C18.4825 14.1214 18.7324 13.9036 18.9168 13.6345C19.1013 13.3654 19.2142 13.0537 19.2449 12.7289C19.2756 12.4041 19.2231 12.0768 19.0924 11.7779C18.9617 11.479 18.757 11.2183 18.4977 11.0203H18.4945ZM3.625 15.625H1.75V12.5H3.625V15.625ZM17.643 13.1414L14.6742 14.4055L9.79688 15.625H4.875V12.1336L6.64297 10.3664C6.75862 10.2498 6.89629 10.1574 7.04798 10.0945C7.19967 10.0316 7.36235 9.99948 7.52656 10H11.4375C11.6861 10 11.9246 10.0988 12.1004 10.2746C12.2762 10.4504 12.375 10.6889 12.375 10.9375C12.375 11.1861 12.2762 11.4246 12.1004 11.6004C11.9246 11.7762 11.6861 11.875 11.4375 11.875H9.25C9.08424 11.875 8.92527 11.9409 8.80806 12.0581C8.69085 12.1753 8.625 12.3342 8.625 12.5C8.625 12.6658 8.69085 12.8247 8.80806 12.9419C8.92527 13.0592 9.08424 13.125 9.25 13.125H11.75C11.797 13.1249 11.8439 13.1196 11.8898 13.1094L17.1242 11.9055L17.1484 11.8992C17.3082 11.8549 17.4788 11.8712 17.6273 11.945C17.7758 12.0188 17.8917 12.1449 17.9528 12.2991C18.0139 12.4533 18.0158 12.6246 17.9582 12.7801C17.9005 12.9356 17.7874 13.0643 17.6406 13.1414H17.643ZM12.5578 4.81719C12.4997 4.75915 12.4536 4.69022 12.4221 4.61434C12.3907 4.53847 12.3745 4.45714 12.3745 4.375C12.3745 4.29287 12.3907 4.21154 12.4221 4.13567C12.4536 4.05979 12.4997 3.99086 12.5578 3.93282L15.0578 1.43282C15.1159 1.37471 15.1848 1.32861 15.2607 1.29715C15.3365 1.2657 15.4179 1.24951 15.5 1.24951C15.5821 1.24951 15.6635 1.2657 15.7393 1.29715C15.8152 1.32861 15.8841 1.37471 15.9422 1.43282L18.4422 3.93282C18.5003 3.99089 18.5463 4.05982 18.5777 4.13569C18.6092 4.21156 18.6253 4.29288 18.6253 4.375C18.6253 4.45713 18.6092 4.53844 18.5777 4.61431C18.5463 4.69018 18.5003 4.75912 18.4422 4.81719C18.3841 4.87526 18.3152 4.92132 18.2393 4.95275C18.1634 4.98418 18.0821 5.00035 18 5.00035C17.9179 5.00035 17.8366 4.98418 17.7607 4.95275C17.6848 4.92132 17.6159 4.87526 17.5578 4.81719L16.125 3.3836V8.125C16.125 8.29076 16.0592 8.44974 15.9419 8.56695C15.8247 8.68416 15.6658 8.75 15.5 8.75C15.3342 8.75 15.1753 8.68416 15.0581 8.56695C14.9408 8.44974 14.875 8.29076 14.875 8.125V3.3836L13.4422 4.81719C13.3841 4.8753 13.3152 4.9214 13.2393 4.95285C13.1635 4.98431 13.0821 5.0005 13 5.0005C12.9179 5.0005 12.8365 4.98431 12.7607 4.95285C12.6848 4.9214 12.6159 4.8753 12.5578 4.81719Z" fill="#CEF24A"/>
</g>
</svg>
