<svg width="21" height="20" viewBox="0 0 21 20" fill="none" xmlns="http://www.w3.org/2000/svg">
<g id="HandArrowDown">
<path id="Vector" d="M18.4945 11.0203C18.262 10.8412 17.9913 10.7182 17.7035 10.6609C17.4157 10.6036 17.1185 10.6135 16.8352 10.6898L13.5664 11.4414C13.6425 11.1201 13.6448 10.7858 13.5733 10.4636C13.5017 10.1413 13.3582 9.83934 13.1534 9.58041C12.9486 9.32149 12.6878 9.11228 12.3907 8.96847C12.0935 8.82465 11.7676 8.74996 11.4375 8.75H7.52656C7.19812 8.74918 6.87278 8.81345 6.56932 8.93909C6.26587 9.06474 5.99032 9.24927 5.75859 9.48203L3.99141 11.25H1.75C1.41848 11.25 1.10054 11.3817 0.866117 11.6161C0.631696 11.8505 0.5 12.1685 0.5 12.5L0.5 15.625C0.5 15.9565 0.631696 16.2745 0.866117 16.5089C1.10054 16.7433 1.41848 16.875 1.75 16.875H9.875C9.9261 16.875 9.97701 16.8687 10.0266 16.8562L15.0266 15.6062C15.0584 15.5987 15.0896 15.5882 15.1195 15.575L18.1562 14.2828L18.1906 14.2672C18.4825 14.1214 18.7324 13.9036 18.9168 13.6345C19.1013 13.3654 19.2142 13.0537 19.2449 12.7289C19.2756 12.4041 19.2231 12.0768 19.0924 11.7779C18.9617 11.479 18.757 11.2183 18.4977 11.0203H18.4945ZM1.75 12.5H3.625V15.625H1.75V12.5ZM17.643 13.1414L14.6742 14.4055L9.79688 15.625H4.875V12.1336L6.64297 10.3664C6.75862 10.2498 6.89629 10.1574 7.04798 10.0945C7.19967 10.0316 7.36235 9.99948 7.52656 10H11.4375C11.6861 10 11.9246 10.0988 12.1004 10.2746C12.2762 10.4504 12.375 10.6889 12.375 10.9375C12.375 11.1861 12.2762 11.4246 12.1004 11.6004C11.9246 11.7762 11.6861 11.875 11.4375 11.875H9.25C9.08424 11.875 8.92527 11.9408 8.80806 12.0581C8.69085 12.1753 8.625 12.3342 8.625 12.5C8.625 12.6658 8.69085 12.8247 8.80806 12.9419C8.92527 13.0592 9.08424 13.125 9.25 13.125H11.75C11.797 13.1249 11.8439 13.1196 11.8898 13.1094L17.1242 11.9055L17.1484 11.8992C17.3082 11.8549 17.4788 11.8712 17.6273 11.945C17.7758 12.0188 17.8917 12.1449 17.9528 12.2991C18.0139 12.4533 18.0158 12.6246 17.9582 12.7801C17.9005 12.9356 17.7874 13.0643 17.6406 13.1414H17.643ZM12.5578 6.06719C12.4405 5.94991 12.3747 5.79085 12.3747 5.625C12.3747 5.45915 12.4405 5.30009 12.5578 5.18281C12.6751 5.06554 12.8341 4.99965 13 4.99965C13.1659 4.99965 13.3249 5.06554 13.4422 5.18281L14.875 6.61641V1.875C14.875 1.70924 14.9408 1.55027 15.0581 1.43306C15.1753 1.31585 15.3342 1.25 15.5 1.25C15.6658 1.25 15.8247 1.31585 15.9419 1.43306C16.0592 1.55027 16.125 1.70924 16.125 1.875V6.61641L17.5578 5.18281C17.6751 5.06554 17.8341 4.99965 18 4.99965C18.1659 4.99965 18.3249 5.06554 18.4422 5.18281C18.5595 5.30009 18.6253 5.45915 18.6253 5.625C18.6253 5.79085 18.5595 5.94991 18.4422 6.06719L15.9422 8.56719C15.8841 8.6253 15.8152 8.6714 15.7393 8.70285C15.6635 8.7343 15.5821 8.75049 15.5 8.75049C15.4179 8.75049 15.3365 8.7343 15.2607 8.70285C15.1848 8.6714 15.1159 8.6253 15.0578 8.56719L12.5578 6.06719Z" fill="#7A7891"/>
</g>
</svg>
