<svg width="20" height="20" viewBox="0 0 20 20" fill="none" xmlns="http://www.w3.org/2000/svg">
<g id="HandArrowUp">
<path id="Vector" d="M17.9945 11.0203C17.762 10.8414 17.4913 10.7185 17.2035 10.6612C16.9157 10.6038 16.6185 10.6137 16.3352 10.6898L13.0664 11.4414C13.1425 11.1202 13.1448 10.7859 13.0733 10.4636C13.0017 10.1413 12.8582 9.83934 12.6534 9.58042C12.4486 9.32149 12.1878 9.11228 11.8907 8.96847C11.5935 8.82466 11.2676 8.74997 10.9375 8.75H7.02656C6.69812 8.74918 6.37278 8.81345 6.06932 8.9391C5.76587 9.06474 5.49032 9.24928 5.25859 9.48204L3.49141 11.25H1.25C0.918479 11.25 0.600537 11.3817 0.366117 11.6161C0.131696 11.8505 0 12.1685 0 12.5L0 15.625C0 15.9565 0.131696 16.2745 0.366117 16.5089C0.600537 16.7433 0.918479 16.875 1.25 16.875H9.375C9.4261 16.875 9.47701 16.8687 9.52656 16.8563L14.5266 15.6063C14.5587 15.5986 14.59 15.5881 14.6203 15.575L17.6562 14.2828L17.6906 14.2672C17.9825 14.1214 18.2324 13.9036 18.4168 13.6345C18.6013 13.3654 18.7142 13.0537 18.7449 12.7289C18.7756 12.4041 18.7231 12.0768 18.5924 11.7779C18.4617 11.479 18.257 11.2183 17.9977 11.0203H17.9945ZM3.125 15.625H1.25V12.5H3.125V15.625ZM17.143 13.1414L14.1742 14.4055L9.29688 15.625H4.375V12.1336L6.14297 10.3664C6.25862 10.2498 6.39629 10.1574 6.54798 10.0945C6.69967 10.0316 6.86235 9.99948 7.02656 10H10.9375C11.1861 10 11.4246 10.0988 11.6004 10.2746C11.7762 10.4504 11.875 10.6889 11.875 10.9375C11.875 11.1861 11.7762 11.4246 11.6004 11.6004C11.4246 11.7762 11.1861 11.875 10.9375 11.875H8.75C8.58424 11.875 8.42527 11.9409 8.30806 12.0581C8.19085 12.1753 8.125 12.3342 8.125 12.5C8.125 12.6658 8.19085 12.8247 8.30806 12.9419C8.42527 13.0592 8.58424 13.125 8.75 13.125H11.25C11.297 13.1249 11.3439 13.1196 11.3898 13.1094L16.6242 11.9055L16.6484 11.8992C16.8082 11.8549 16.9788 11.8712 17.1273 11.945C17.2758 12.0188 17.3917 12.1449 17.4528 12.2991C17.5139 12.4533 17.5158 12.6246 17.4582 12.7801C17.4005 12.9356 17.2874 13.0643 17.1406 13.1414H17.143ZM12.0578 4.81719C11.9997 4.75915 11.9536 4.69022 11.9221 4.61434C11.8907 4.53847 11.8745 4.45714 11.8745 4.375C11.8745 4.29287 11.8907 4.21154 11.9221 4.13567C11.9536 4.05979 11.9997 3.99086 12.0578 3.93282L14.5578 1.43282C14.6159 1.37471 14.6848 1.32861 14.7607 1.29715C14.8365 1.2657 14.9179 1.24951 15 1.24951C15.0821 1.24951 15.1635 1.2657 15.2393 1.29715C15.3152 1.32861 15.3841 1.37471 15.4422 1.43282L17.9422 3.93282C18.0003 3.99089 18.0463 4.05982 18.0777 4.13569C18.1092 4.21156 18.1253 4.29288 18.1253 4.375C18.1253 4.45713 18.1092 4.53844 18.0777 4.61431C18.0463 4.69018 18.0003 4.75912 17.9422 4.81719C17.8841 4.87526 17.8152 4.92132 17.7393 4.95275C17.6634 4.98418 17.5821 5.00035 17.5 5.00035C17.4179 5.00035 17.3366 4.98418 17.2607 4.95275C17.1848 4.92132 17.1159 4.87526 17.0578 4.81719L15.625 3.3836V8.125C15.625 8.29076 15.5592 8.44974 15.4419 8.56695C15.3247 8.68416 15.1658 8.75 15 8.75C14.8342 8.75 14.6753 8.68416 14.5581 8.56695C14.4408 8.44974 14.375 8.29076 14.375 8.125V3.3836L12.9422 4.81719C12.8841 4.8753 12.8152 4.9214 12.7393 4.95285C12.6635 4.98431 12.5821 5.0005 12.5 5.0005C12.4179 5.0005 12.3365 4.98431 12.2607 4.95285C12.1848 4.9214 12.1159 4.8753 12.0578 4.81719Z" fill="#7A7891"/>
</g>
</svg>
