<svg width="20" height="20" viewBox="0 0 20 20" fill="none" xmlns="http://www.w3.org/2000/svg">
<g id="LinkSimple">
<path id="Vector" d="M7.5 12.5L12.5 7.5" stroke="#CEF24A" stroke-width="1.5" stroke-linecap="round" stroke-linejoin="round"/>
<path id="Vector_2" d="M8.75 5.94611L11.0984 3.60236C11.8036 2.90856 12.7544 2.52152 13.7437 2.52554C14.7329 2.52957 15.6805 2.92434 16.3801 3.62386C17.0796 4.32338 17.4743 5.27098 17.4784 6.26024C17.4824 7.24951 17.0954 8.20029 16.4016 8.90548L14.0531 11.25" stroke="#CEF24A" stroke-width="1.5" stroke-linecap="round" stroke-linejoin="round"/>
<path id="Vector_3" d="M5.94598 8.75L3.60223 11.0984C2.90843 11.8036 2.52139 12.7544 2.52542 13.7437C2.52945 14.7329 2.92422 15.6805 3.62374 16.3801C4.32326 17.0796 5.27086 17.4743 6.26012 17.4784C7.24938 17.4824 8.20016 17.0954 8.90536 16.4016L11.2499 14.0531" stroke="#CEF24A" stroke-width="1.5" stroke-linecap="round" stroke-linejoin="round"/>
</g>
</svg>
