<svg width="34" height="34" viewBox="0 0 34 34" fill="none" xmlns="http://www.w3.org/2000/svg">
<path id="Party" d="M17 0L18.2704 8.64321L22.0249 0.759508L20.6984 9.39423L26.6033 2.97054L22.7978 10.8295L30.3284 6.43663L24.3819 12.8216L32.8693 10.8498L25.3102 15.1934L34 15.8179L25.5 17.7342L33.6203 20.8995L24.9347 20.2184L31.7637 25.6432L23.6643 22.425L28.5954 29.6274L21.8017 24.1579L24.3967 32.498L19.5125 25.2635L19.5409 34L17 25.6432L14.4592 34L14.4876 25.2635L9.60331 32.498L12.1984 24.1579L5.40465 29.6274L10.3358 22.425L2.23629 25.6432L9.0654 20.2184L0.379747 20.8995L8.50001 17.7342L0 15.8179L8.68989 15.1934L1.13077 10.8498L9.61816 12.8216L3.67161 6.43663L11.2023 10.8295L7.39672 2.97054L13.3017 9.39423L11.9751 0.759508L15.7297 8.64321L17 0Z" fill="#CEF24A"/>
</svg>
