<svg width="29" height="29" viewBox="0 0 29 29" fill="none" xmlns="http://www.w3.org/2000/svg">
<g id="Reward icon">
<path id="Ellipse 18" d="M14.5 0.5C22.232 0.5 28.5 6.76801 28.5 14.5C28.5 22.232 22.232 28.5 14.5 28.5C6.76801 28.5 0.5 22.232 0.5 14.5C0.5 6.76801 6.76801 0.5 14.5 0.5Z" stroke="#CEF24A"/>
<path id="Vector" d="M11.5 14.5C15.6422 14.5 19.0001 12.989 19.0001 11.125C19.0001 9.26105 15.6422 7.75 11.5 7.75C7.35788 7.75 4 9.26105 4 11.125C4 12.989 7.35788 14.5 11.5 14.5Z" stroke="#CEF24A" stroke-width="1.31868" stroke-linecap="round" stroke-linejoin="round"/>
<path id="Vector_2" d="M4 11.125V14.875C4 16.7388 7.35814 18.25 11.5 18.25C15.6419 18.25 19.0001 16.7388 19.0001 14.875V11.125" stroke="#CEF24A" stroke-width="1.31868" stroke-linecap="round" stroke-linejoin="round"/>
<path id="Vector_3" d="M8.5 14.2188V17.9688" stroke="#CEF24A" stroke-width="1.31868" stroke-linecap="round" stroke-linejoin="round"/>
<path id="Vector_4" d="M18.9997 12.3176C22.4234 12.6308 24.9997 13.992 24.9997 15.6251C24.9997 17.4889 21.6415 19.0002 17.4997 19.0002C15.6621 19.0002 13.9784 18.703 12.6743 18.2089" stroke="#CEF24A" stroke-width="1.31868" stroke-linecap="round" stroke-linejoin="round"/>
<path id="Vector_5" d="M10 18.1825V19.375C10 21.2388 13.3581 22.75 17.5 22.75C21.6419 22.75 25.0001 21.2388 25.0001 19.375V15.625" stroke="#CEF24A" stroke-width="1.31868" stroke-linecap="round" stroke-linejoin="round"/>
<path id="Vector_6" d="M20.5002 18.7188V22.4688" stroke="#CEF24A" stroke-width="1.31868" stroke-linecap="round" stroke-linejoin="round"/>
<path id="Vector_7" d="M14.5 14.2188V22.4688" stroke="#CEF24A" stroke-width="1.31868" stroke-linecap="round" stroke-linejoin="round"/>
</g>
</svg>
